dataset
version=1
nRows=16
nColumns=39
inDegrees=no
endheader
time	sternoclavicular_r2	sternoclavicular_r3	unrotscap_r3	unrotscap_r2	acromioclavicular_r2	acromioclavicular_r3	acromioclavicular_r1	unrothum_r1	unrothum_r3	unrothum_r2	elv_angle	shoulder_elv	shoulder1_r2	shoulder_rot	elbow_flexion	pro_sup	deviation	flexion	cmc_abduction	cmc_flexion	mp_flexion	ip_flexion	mcp2_flexion	mcp2_abduction	pm2_flexion	md2_flexion	mcp3_flexion	mcp3_abduction	pm3_flexion	md3_flexion	mcp4_flexion	mcp4_abduction	pm4_flexion	md4_flexion	mcp5_flexion	mcp5_abduction	pm5_flexion	md5_flexion
3.050000	-0.034475	-0.499044	0.329502	0.179508	0.107461	0.369637	-0.185945	0.096817	-0.058718	0.071308	0.059435	0.027437	0.146525	0.146525	1.975476	1.321079	0.000000	0.000000	0.000000	0.000000	0.000000	0.000000	0.000000	0.000000	0.000000	0.000000	0.000000	0.000000	0.000000	0.000000	0.000000	0.000000	0.000000	0.000000	0.000000	0.000000	0.000000	0.000000
3.055000	-0.034787	-0.499793	0.331326	0.180561	0.108515	0.369687	-0.187578	0.097719	-0.059264	0.072755	0.060766	0.027437	0.146525	0.146525	1.966228	1.321659	0.000000	0.000000	0.000000	0.000000	0.000000	0.000000	0.000000	0.000000	0.000000	0.000000	0.000000	0.000000	0.000000	0.000000	0.000000	0.000000	0.000000	0.000000	0.000000	0.000000	0.000000	0.000000
3.060000	-0.035101	-0.500537	0.333133	0.181625	0.109580	0.369734	-0.189188	0.098630	-0.059793	0.074209	0.062110	0.027437	0.146525	0.146525	1.956890	1.322249	0.000000	0.000000	0.000000	0.000000	0.000000	0.000000	0.000000	0.000000	0.000000	0.000000	0.000000	0.000000	0.000000	0.000000	0.000000	0.000000	0.000000	0.000000	0.000000	0.000000	0.000000	0.000000
3.065000	-0.035417	-0.501275	0.334921	0.182700	0.110656	0.369780	-0.190773	0.099550	-0.060306	0.075669	0.063468	0.027437	0.146525	0.146525	1.947469	1.322849	0.000000	0.000000	0.000000	0.000000	0.000000	0.000000	0.000000	0.000000	0.000000	0.000000	0.000000	0.000000	0.000000	0.000000	0.000000	0.000000	0.000000	0.000000	0.000000	0.000000	0.000000	0.000000
3.070000	-0.035734	-0.502008	0.336688	0.183783	0.111742	0.369824	-0.192332	0.100478	-0.060801	0.077134	0.064837	0.027437	0.146525	0.146525	1.937969	1.323458	0.000000	0.000000	0.000000	0.000000	0.000000	0.000000	0.000000	0.000000	0.000000	0.000000	0.000000	0.000000	0.000000	0.000000	0.000000	0.000000	0.000000	0.000000	0.000000	0.000000	0.000000	0.000000
3.075000	-0.036051	-0.502735	0.338432	0.184876	0.112836	0.369865	-0.193864	0.101412	-0.061277	0.078604	0.066218	0.027437	0.146525	0.146525	1.928398	1.324076	0.000000	0.000000	0.000000	0.000000	0.000000	0.000000	0.000000	0.000000	0.000000	0.000000	0.000000	0.000000	0.000000	0.000000	0.000000	0.000000	0.000000	0.000000	0.000000	0.000000	0.000000	0.000000
3.080000	-0.036370	-0.503455	0.340151	0.185976	0.113938	0.369904	-0.195366	0.102353	-0.061735	0.080076	0.067609	0.027437	0.146525	0.146525	1.918761	1.324704	0.000000	0.000000	0.000000	0.000000	0.000000	0.000000	0.000000	0.000000	0.000000	0.000000	0.000000	0.000000	0.000000	0.000000	0.000000	0.000000	0.000000	0.000000	0.000000	0.000000	0.000000	0.000000
3.085000	-0.036689	-0.504169	0.341845	0.187083	0.115048	0.369941	-0.196839	0.103299	-0.062173	0.081551	0.069009	0.027437	0.146525	0.146525	1.909064	1.325342	0.000000	0.000000	0.000000	0.000000	0.000000	0.000000	0.000000	0.000000	0.000000	0.000000	0.000000	0.000000	0.000000	0.000000	0.000000	0.000000	0.000000	0.000000	0.000000	0.000000	0.000000	0.000000
3.090000	-0.037008	-0.504876	0.343512	0.188196	0.116164	0.369976	-0.198280	0.104249	-0.062592	0.083028	0.070417	0.027437	0.146525	0.146525	1.899314	1.325990	0.000000	0.000000	0.000000	0.000000	0.000000	0.000000	0.000000	0.000000	0.000000	0.000000	0.000000	0.000000	0.000000	0.000000	0.000000	0.000000	0.000000	0.000000	0.000000	0.000000	0.000000	0.000000
3.095000	-0.037327	-0.505577	0.345150	0.189314	0.117286	0.370008	-0.199688	0.105202	-0.062992	0.084504	0.071832	0.027437	0.146525	0.146525	1.889516	1.326647	0.000000	0.000000	0.000000	0.000000	0.000000	0.000000	0.000000	0.000000	0.000000	0.000000	0.000000	0.000000	0.000000	0.000000	0.000000	0.000000	0.000000	0.000000	0.000000	0.000000	0.000000	0.000000
3.100000	-0.037645	-0.506270	0.346759	0.190438	0.118413	0.370038	-0.201064	0.106159	-0.063371	0.085979	0.073253	0.027437	0.146525	0.146525	1.879677	1.327314	0.000000	0.000000	0.000000	0.000000	0.000000	0.000000	0.000000	0.000000	0.000000	0.000000	0.000000	0.000000	0.000000	0.000000	0.000000	0.000000	0.000000	0.000000	0.000000	0.000000	0.000000	0.000000
3.105000	-0.037963	-0.506957	0.348337	0.191565	0.119545	0.370065	-0.202405	0.107118	-0.063731	0.087453	0.074680	0.027437	0.146525	0.146525	1.869803	1.327992	0.000000	0.000000	0.000000	0.000000	0.000000	0.000000	0.000000	0.000000	0.000000	0.000000	0.000000	0.000000	0.000000	0.000000	0.000000	0.000000	0.000000	0.000000	0.000000	0.000000	0.000000	0.000000
3.110000	-0.038279	-0.507638	0.349885	0.192695	0.120679	0.370091	-0.203712	0.108079	-0.064072	0.088924	0.076111	0.027437	0.146525	0.146525	1.859900	1.328679	0.000000	0.000000	0.000000	0.000000	0.000000	0.000000	0.000000	0.000000	0.000000	0.000000	0.000000	0.000000	0.000000	0.000000	0.000000	0.000000	0.000000	0.000000	0.000000	0.000000	0.000000	0.000000
3.115000	-0.038595	-0.508311	0.351400	0.193828	0.121817	0.370114	-0.204983	0.109041	-0.064392	0.090392	0.077545	0.027437	0.146525	0.146525	1.849975	1.329376	0.000000	0.000000	0.000000	0.000000	0.000000	0.000000	0.000000	0.000000	0.000000	0.000000	0.000000	0.000000	0.000000	0.000000	0.000000	0.000000	0.000000	0.000000	0.000000	0.000000	0.000000	0.000000
3.120000	-0.038909	-0.508978	0.352882	0.194963	0.122957	0.370134	-0.206219	0.110003	-0.064693	0.091855	0.078982	0.027437	0.146525	0.146525	1.840034	1.330084	0.000000	0.000000	0.000000	0.000000	0.000000	0.000000	0.000000	0.000000	0.000000	0.000000	0.000000	0.000000	0.000000	0.000000	0.000000	0.000000	0.000000	0.000000	0.000000	0.000000	0.000000	0.000000
3.125000	-0.039221	-0.509639	0.354332	0.196098	0.124098	0.370153	-0.207419	0.110965	-0.064974	0.093313	0.080420	0.027437	0.146525	0.146525	1.830082	1.330802	0.000000	0.000000	0.000000	0.000000	0.000000	0.000000	0.000000	0.000000	0.000000	0.000000	0.000000	0.000000	0.000000	0.000000	0.000000	0.000000	0.000000	0.000000	0.000000	0.000000	0.000000	0.000000
